<?xml version="1.0" encoding="UTF-8" standalone="no"?>
<!DOCTYPE svg PUBLIC "-//W3C//DTD SVG 1.1//EN"
 "http://www.w3.org/Graphics/SVG/1.1/DTD/svg11.dtd">
<!-- Generated by graphviz version 2.47.3 (20210619.1520)
 -->
<!-- Title: dependencies Pages: 1 -->
<svg width="864pt" height="247pt"
 viewBox="0.00 0.00 864.00 246.80" xmlns="http://www.w3.org/2000/svg" xmlns:xlink="http://www.w3.org/1999/xlink">
<g id="graph0" class="graph" transform="scale(1 1) rotate(0) translate(4 242.8)">
<title>dependencies</title>
<polygon fill="white" stroke="transparent" points="-4,4 -4,-242.8 860,-242.8 860,4 -4,4"/>
<text text-anchor="middle" x="428" y="-8.2" font-family="sans-serif" font-size="14.00">dependencies</text>
<g id="clust1" class="cluster">
<title>cluster_HomeModule</title>
<polygon fill="none" stroke="black" stroke-dasharray="1,5" points="8,-32.8 8,-230.8 848,-230.8 848,-32.8 8,-32.8"/>
</g>
<g id="clust7" class="cluster">
<title>cluster_HomeModule_imports</title>
<polygon fill="none" stroke="black" points="686,-40.8 686,-92.8 840,-92.8 840,-40.8 686,-40.8"/>
</g>
<g id="clust2" class="cluster">
<title>cluster_HomeModule_declarations</title>
<polygon fill="none" stroke="black" points="16,-40.8 16,-92.8 678,-92.8 678,-40.8 16,-40.8"/>
</g>
<g id="clust9" class="cluster">
<title>cluster_HomeModule_bootstrap</title>
<polygon fill="none" stroke="black" points="355,-170.8 355,-222.8 517,-222.8 517,-170.8 355,-170.8"/>
</g>
<!-- HeaderPlotComponent -->
<g id="node1" class="node">
<title>HeaderPlotComponent</title>
<polygon fill="#ffffb3" stroke="black" points="670.31,-84.8 525.69,-84.8 525.69,-48.8 670.31,-48.8 670.31,-84.8"/>
<text text-anchor="middle" x="598" y="-62.6" font-family="Times,serif" font-size="14.00">HeaderPlotComponent</text>
</g>
<!-- HomeModule -->
<g id="node5" class="node">
<title>HomeModule</title>
<polygon fill="#8dd3c7" stroke="black" points="482.76,-149.8 479.76,-153.8 458.76,-153.8 455.76,-149.8 389.24,-149.8 389.24,-113.8 482.76,-113.8 482.76,-149.8"/>
<text text-anchor="middle" x="436" y="-127.6" font-family="Times,serif" font-size="14.00">HomeModule</text>
</g>
<!-- HeaderPlotComponent&#45;&gt;HomeModule -->
<g id="edge1" class="edge">
<title>HeaderPlotComponent&#45;&gt;HomeModule</title>
<path fill="none" stroke="black" d="M598,-84.82C598,-102.17 598,-125.8 598,-125.8 598,-125.8 492.86,-125.8 492.86,-125.8"/>
<polygon fill="black" stroke="black" points="492.86,-122.3 482.86,-125.8 492.86,-129.3 492.86,-122.3"/>
</g>
<!-- HomePageComponent -->
<g id="node2" class="node">
<title>HomePageComponent</title>
<polygon fill="#ffffb3" stroke="black" points="507.26,-84.8 364.74,-84.8 364.74,-48.8 507.26,-48.8 507.26,-84.8"/>
<text text-anchor="middle" x="436" y="-62.6" font-family="Times,serif" font-size="14.00">HomePageComponent</text>
</g>
<!-- HomePageComponent&#45;&gt;HomeModule -->
<g id="edge2" class="edge">
<title>HomePageComponent&#45;&gt;HomeModule</title>
<path fill="none" stroke="black" d="M436,-84.91C436,-84.91 436,-103.79 436,-103.79"/>
<polygon fill="black" stroke="black" points="432.5,-103.79 436,-113.79 439.5,-103.79 432.5,-103.79"/>
</g>
<!-- NotificationPlotComponent -->
<g id="node3" class="node">
<title>NotificationPlotComponent</title>
<polygon fill="#ffffb3" stroke="black" points="346.55,-84.8 175.45,-84.8 175.45,-48.8 346.55,-48.8 346.55,-84.8"/>
<text text-anchor="middle" x="261" y="-62.6" font-family="Times,serif" font-size="14.00">NotificationPlotComponent</text>
</g>
<!-- NotificationPlotComponent&#45;&gt;HomeModule -->
<g id="edge3" class="edge">
<title>NotificationPlotComponent&#45;&gt;HomeModule</title>
<path fill="none" stroke="black" d="M261,-84.82C261,-102.17 261,-125.8 261,-125.8 261,-125.8 379.1,-125.8 379.1,-125.8"/>
<polygon fill="black" stroke="black" points="379.1,-129.3 389.1,-125.8 379.1,-122.3 379.1,-129.3"/>
</g>
<!-- SalesPlotComponent -->
<g id="node4" class="node">
<title>SalesPlotComponent</title>
<polygon fill="#ffffb3" stroke="black" points="157.94,-84.8 24.06,-84.8 24.06,-48.8 157.94,-48.8 157.94,-84.8"/>
<text text-anchor="middle" x="91" y="-62.6" font-family="Times,serif" font-size="14.00">SalesPlotComponent</text>
</g>
<!-- SalesPlotComponent&#45;&gt;HomeModule -->
<g id="edge4" class="edge">
<title>SalesPlotComponent&#45;&gt;HomeModule</title>
<path fill="none" stroke="black" d="M91,-85.08C91,-106.12 91,-137.8 91,-137.8 91,-137.8 379.11,-137.8 379.11,-137.8"/>
<polygon fill="black" stroke="black" points="379.11,-141.3 389.11,-137.8 379.11,-134.3 379.11,-141.3"/>
</g>
<!-- HomePageComponent  -->
<g id="node7" class="node">
<title>HomePageComponent </title>
<polygon fill="#80b1d3" stroke="black" points="509.26,-214.8 362.74,-214.8 362.74,-178.8 509.26,-178.8 509.26,-214.8"/>
<text text-anchor="middle" x="436" y="-192.6" font-family="Times,serif" font-size="14.00">HomePageComponent </text>
</g>
<!-- HomeModule&#45;&gt;HomePageComponent  -->
<g id="edge6" class="edge">
<title>HomeModule&#45;&gt;HomePageComponent </title>
<path fill="none" stroke="black" stroke-dasharray="1,5" d="M436,-149.91C436,-149.91 436,-168.79 436,-168.79"/>
<polygon fill="black" stroke="black" points="432.5,-168.79 436,-178.79 439.5,-168.79 432.5,-168.79"/>
</g>
<!-- HomeRoutingModule -->
<g id="node6" class="node">
<title>HomeRoutingModule</title>
<polygon fill="#8dd3c7" stroke="black" points="832.38,-84.8 829.38,-88.8 808.38,-88.8 805.38,-84.8 693.62,-84.8 693.62,-48.8 832.38,-48.8 832.38,-84.8"/>
<text text-anchor="middle" x="763" y="-62.6" font-family="Times,serif" font-size="14.00">HomeRoutingModule</text>
</g>
<!-- HomeRoutingModule&#45;&gt;HomeModule -->
<g id="edge5" class="edge">
<title>HomeRoutingModule&#45;&gt;HomeModule</title>
<path fill="none" stroke="black" d="M763,-85.08C763,-106.12 763,-137.8 763,-137.8 763,-137.8 492.85,-137.8 492.85,-137.8"/>
<polygon fill="black" stroke="black" points="492.85,-134.3 482.85,-137.8 492.85,-141.3 492.85,-134.3"/>
</g>
</g>
</svg>
