<?xml version="1.0" encoding="UTF-8" standalone="no"?>
<!DOCTYPE svg PUBLIC "-//W3C//DTD SVG 1.1//EN"
 "http://www.w3.org/Graphics/SVG/1.1/DTD/svg11.dtd">
<!-- Generated by graphviz version 2.47.3 (20210619.1520)
 -->
<!-- Title: dependencies Pages: 1 -->
<svg width="896pt" height="174pt"
 viewBox="0.00 0.00 896.00 173.80" xmlns="http://www.w3.org/2000/svg" xmlns:xlink="http://www.w3.org/1999/xlink">
<g id="graph0" class="graph" transform="scale(1 1) rotate(0) translate(4 169.8)">
<title>dependencies</title>
<polygon fill="white" stroke="transparent" points="-4,4 -4,-169.8 892,-169.8 892,4 -4,4"/>
<text text-anchor="middle" x="444" y="-8.2" font-family="sans-serif" font-size="14.00">dependencies</text>
<g id="clust1" class="cluster">
<title>cluster_LoginModule</title>
<polygon fill="none" stroke="black" stroke-dasharray="1,5" points="8,-32.8 8,-157.8 880,-157.8 880,-32.8 8,-32.8"/>
</g>
<g id="clust2" class="cluster">
<title>cluster_LoginModule_declarations</title>
<polygon fill="none" stroke="black" points="178,-40.8 178,-92.8 872,-92.8 872,-40.8 178,-40.8"/>
</g>
<g id="clust7" class="cluster">
<title>cluster_LoginModule_imports</title>
<polygon fill="none" stroke="black" points="16,-40.8 16,-92.8 170,-92.8 170,-40.8 16,-40.8"/>
</g>
<!-- EmailCheckComponent -->
<g id="node1" class="node">
<title>EmailCheckComponent</title>
<polygon fill="#ffffb3" stroke="black" points="864.04,-84.8 713.96,-84.8 713.96,-48.8 864.04,-48.8 864.04,-84.8"/>
<text text-anchor="middle" x="789" y="-62.6" font-family="Times,serif" font-size="14.00">EmailCheckComponent</text>
</g>
<!-- LoginModule -->
<g id="node5" class="node">
<title>LoginModule</title>
<polygon fill="#8dd3c7" stroke="black" points="505.49,-149.8 502.49,-153.8 481.49,-153.8 478.49,-149.8 412.51,-149.8 412.51,-113.8 505.49,-113.8 505.49,-149.8"/>
<text text-anchor="middle" x="459" y="-127.6" font-family="Times,serif" font-size="14.00">LoginModule</text>
</g>
<!-- EmailCheckComponent&#45;&gt;LoginModule -->
<g id="edge1" class="edge">
<title>EmailCheckComponent&#45;&gt;LoginModule</title>
<path fill="none" stroke="black" d="M789,-85.08C789,-106.12 789,-137.8 789,-137.8 789,-137.8 515.58,-137.8 515.58,-137.8"/>
<polygon fill="black" stroke="black" points="515.58,-134.3 505.58,-137.8 515.58,-141.3 515.58,-134.3"/>
</g>
<!-- LoginMenuComponent -->
<g id="node2" class="node">
<title>LoginMenuComponent</title>
<polygon fill="#ffffb3" stroke="black" points="695.94,-84.8 548.06,-84.8 548.06,-48.8 695.94,-48.8 695.94,-84.8"/>
<text text-anchor="middle" x="622" y="-62.6" font-family="Times,serif" font-size="14.00">LoginMenuComponent</text>
</g>
<!-- LoginMenuComponent&#45;&gt;LoginModule -->
<g id="edge2" class="edge">
<title>LoginMenuComponent&#45;&gt;LoginModule</title>
<path fill="none" stroke="black" d="M622,-84.82C622,-102.17 622,-125.8 622,-125.8 622,-125.8 515.71,-125.8 515.71,-125.8"/>
<polygon fill="black" stroke="black" points="515.71,-122.3 505.71,-125.8 515.71,-129.3 515.71,-122.3"/>
</g>
<!-- LoginPageComponent -->
<g id="node3" class="node">
<title>LoginPageComponent</title>
<polygon fill="#ffffb3" stroke="black" points="529.99,-84.8 388.01,-84.8 388.01,-48.8 529.99,-48.8 529.99,-84.8"/>
<text text-anchor="middle" x="459" y="-62.6" font-family="Times,serif" font-size="14.00">LoginPageComponent</text>
</g>
<!-- LoginPageComponent&#45;&gt;LoginModule -->
<g id="edge3" class="edge">
<title>LoginPageComponent&#45;&gt;LoginModule</title>
<path fill="none" stroke="black" d="M459,-84.91C459,-84.91 459,-103.79 459,-103.79"/>
<polygon fill="black" stroke="black" points="455.5,-103.79 459,-113.79 462.5,-103.79 455.5,-103.79"/>
</g>
<!-- RefactorPasswordComponent -->
<g id="node4" class="node">
<title>RefactorPasswordComponent</title>
<polygon fill="#ffffb3" stroke="black" points="369.68,-84.8 186.32,-84.8 186.32,-48.8 369.68,-48.8 369.68,-84.8"/>
<text text-anchor="middle" x="278" y="-62.6" font-family="Times,serif" font-size="14.00">RefactorPasswordComponent</text>
</g>
<!-- RefactorPasswordComponent&#45;&gt;LoginModule -->
<g id="edge4" class="edge">
<title>RefactorPasswordComponent&#45;&gt;LoginModule</title>
<path fill="none" stroke="black" d="M278,-84.82C278,-102.17 278,-125.8 278,-125.8 278,-125.8 402.39,-125.8 402.39,-125.8"/>
<polygon fill="black" stroke="black" points="402.39,-129.3 412.39,-125.8 402.39,-122.3 402.39,-129.3"/>
</g>
<!-- LoginRoutingModule -->
<g id="node6" class="node">
<title>LoginRoutingModule</title>
<polygon fill="#8dd3c7" stroke="black" points="162.11,-84.8 159.11,-88.8 138.11,-88.8 135.11,-84.8 23.89,-84.8 23.89,-48.8 162.11,-48.8 162.11,-84.8"/>
<text text-anchor="middle" x="93" y="-62.6" font-family="Times,serif" font-size="14.00">LoginRoutingModule</text>
</g>
<!-- LoginRoutingModule&#45;&gt;LoginModule -->
<g id="edge5" class="edge">
<title>LoginRoutingModule&#45;&gt;LoginModule</title>
<path fill="none" stroke="black" d="M93,-85.08C93,-106.12 93,-137.8 93,-137.8 93,-137.8 402.27,-137.8 402.27,-137.8"/>
<polygon fill="black" stroke="black" points="402.27,-141.3 412.27,-137.8 402.27,-134.3 402.27,-141.3"/>
</g>
</g>
</svg>
