<?xml version="1.0" encoding="UTF-8" standalone="no"?>
<!DOCTYPE svg PUBLIC "-//W3C//DTD SVG 1.1//EN"
 "http://www.w3.org/Graphics/SVG/1.1/DTD/svg11.dtd">
<!-- Generated by graphviz version 2.47.3 (20210619.1520)
 -->
<!-- Title: dependencies Pages: 1 -->
<svg width="3406pt" height="174pt"
 viewBox="0.00 0.00 3406.00 173.80" xmlns="http://www.w3.org/2000/svg" xmlns:xlink="http://www.w3.org/1999/xlink">
<g id="graph0" class="graph" transform="scale(1 1) rotate(0) translate(4 169.8)">
<title>dependencies</title>
<polygon fill="white" stroke="transparent" points="-4,4 -4,-169.8 3402,-169.8 3402,4 -4,4"/>
<text text-anchor="middle" x="1699" y="-8.2" font-family="sans-serif" font-size="14.00">dependencies</text>
<g id="clust1" class="cluster">
<title>cluster_SegurancaModule</title>
<polygon fill="none" stroke="black" stroke-dasharray="1,5" points="8,-32.8 8,-157.8 3390,-157.8 3390,-32.8 8,-32.8"/>
</g>
<g id="clust19" class="cluster">
<title>cluster_SegurancaModule_imports</title>
<polygon fill="none" stroke="black" points="3204,-40.8 3204,-92.8 3382,-92.8 3382,-40.8 3204,-40.8"/>
</g>
<g id="clust2" class="cluster">
<title>cluster_SegurancaModule_declarations</title>
<polygon fill="none" stroke="black" points="16,-40.8 16,-92.8 3196,-92.8 3196,-40.8 16,-40.8"/>
</g>
<!-- ...user.default -->
<g id="node1" class="node">
<title>...user.default</title>
<polygon fill="#ffffb3" stroke="black" points="3188.19,-84.8 3095.81,-84.8 3095.81,-48.8 3188.19,-48.8 3188.19,-84.8"/>
<text text-anchor="middle" x="3142" y="-62.6" font-family="Times,serif" font-size="14.00">...user.default</text>
</g>
<!-- SegurancaModule -->
<g id="node17" class="node">
<title>SegurancaModule</title>
<polygon fill="#8dd3c7" stroke="black" points="1523.85,-149.8 1520.85,-153.8 1499.85,-153.8 1496.85,-149.8 1406.15,-149.8 1406.15,-113.8 1523.85,-113.8 1523.85,-149.8"/>
<text text-anchor="middle" x="1465" y="-127.6" font-family="Times,serif" font-size="14.00">SegurancaModule</text>
</g>
<!-- ...user.default&#45;&gt;SegurancaModule -->
<g id="edge1" class="edge">
<title>...user.default&#45;&gt;SegurancaModule</title>
<path fill="none" stroke="black" d="M3142,-84.81C3142,-107.29 3142,-142.8 3142,-142.8 3142,-142.8 1534.19,-142.8 1534.19,-142.8"/>
<polygon fill="black" stroke="black" points="1534.19,-139.3 1524.19,-142.8 1534.19,-146.3 1534.19,-139.3"/>
</g>
<!-- diretorio.DiretorioComponent -->
<g id="node2" class="node">
<title>diretorio.DiretorioComponent</title>
<polygon fill="#ffffb3" stroke="black" points="3078.35,-84.8 2893.65,-84.8 2893.65,-48.8 3078.35,-48.8 3078.35,-84.8"/>
<text text-anchor="middle" x="2986" y="-62.6" font-family="Times,serif" font-size="14.00">diretorio.DiretorioComponent</text>
</g>
<!-- diretorio.DiretorioComponent&#45;&gt;SegurancaModule -->
<g id="edge2" class="edge">
<title>diretorio.DiretorioComponent&#45;&gt;SegurancaModule</title>
<path fill="none" stroke="black" d="M2986,-84.84C2986,-106.46 2986,-139.8 2986,-139.8 2986,-139.8 1534.16,-139.8 1534.16,-139.8"/>
<polygon fill="black" stroke="black" points="1534.16,-136.3 1524.16,-139.8 1534.16,-143.3 1534.16,-136.3"/>
</g>
<!-- diretorio.DiretorioContentComponent -->
<g id="node3" class="node">
<title>diretorio.DiretorioContentComponent</title>
<polygon fill="#ffffb3" stroke="black" points="2875.19,-84.8 2646.81,-84.8 2646.81,-48.8 2875.19,-48.8 2875.19,-84.8"/>
<text text-anchor="middle" x="2761" y="-62.6" font-family="Times,serif" font-size="14.00">diretorio.DiretorioContentComponent</text>
</g>
<!-- diretorio.DiretorioContentComponent&#45;&gt;SegurancaModule -->
<g id="edge3" class="edge">
<title>diretorio.DiretorioContentComponent&#45;&gt;SegurancaModule</title>
<path fill="none" stroke="black" d="M2761,-84.93C2761,-105.37 2761,-135.8 2761,-135.8 2761,-135.8 1534.05,-135.8 1534.05,-135.8"/>
<polygon fill="black" stroke="black" points="1534.05,-132.3 1524.05,-135.8 1534.05,-139.3 1534.05,-132.3"/>
</g>
<!-- diretorio.DiretorioGridComponent -->
<g id="node4" class="node">
<title>diretorio.DiretorioGridComponent</title>
<polygon fill="#ffffb3" stroke="black" points="2629.01,-84.8 2418.99,-84.8 2418.99,-48.8 2629.01,-48.8 2629.01,-84.8"/>
<text text-anchor="middle" x="2524" y="-62.6" font-family="Times,serif" font-size="14.00">diretorio.DiretorioGridComponent</text>
</g>
<!-- diretorio.DiretorioGridComponent&#45;&gt;SegurancaModule -->
<g id="edge4" class="edge">
<title>diretorio.DiretorioGridComponent&#45;&gt;SegurancaModule</title>
<path fill="none" stroke="black" d="M2524,-84.91C2524,-104.14 2524,-131.8 2524,-131.8 2524,-131.8 1534.21,-131.8 1534.21,-131.8"/>
<polygon fill="black" stroke="black" points="1534.21,-128.3 1524.21,-131.8 1534.21,-135.3 1534.21,-128.3"/>
</g>
<!-- emp.EmpresaComponent -->
<g id="node5" class="node">
<title>emp.EmpresaComponent</title>
<polygon fill="#ffffb3" stroke="black" points="2400.92,-84.8 2243.08,-84.8 2243.08,-48.8 2400.92,-48.8 2400.92,-84.8"/>
<text text-anchor="middle" x="2322" y="-62.6" font-family="Times,serif" font-size="14.00">emp.EmpresaComponent</text>
</g>
<!-- emp.EmpresaComponent&#45;&gt;SegurancaModule -->
<g id="edge5" class="edge">
<title>emp.EmpresaComponent&#45;&gt;SegurancaModule</title>
<path fill="none" stroke="black" d="M2322,-85.07C2322,-103.36 2322,-128.8 2322,-128.8 2322,-128.8 1533.91,-128.8 1533.91,-128.8"/>
<polygon fill="black" stroke="black" points="1533.91,-125.3 1523.91,-128.8 1533.91,-132.3 1533.91,-125.3"/>
</g>
<!-- emp.EmpresaContentComponent -->
<g id="node6" class="node">
<title>emp.EmpresaContentComponent</title>
<polygon fill="#ffffb3" stroke="black" points="2225.25,-84.8 2022.75,-84.8 2022.75,-48.8 2225.25,-48.8 2225.25,-84.8"/>
<text text-anchor="middle" x="2124" y="-62.6" font-family="Times,serif" font-size="14.00">emp.EmpresaContentComponent</text>
</g>
<!-- emp.EmpresaContentComponent&#45;&gt;SegurancaModule -->
<g id="edge6" class="edge">
<title>emp.EmpresaContentComponent&#45;&gt;SegurancaModule</title>
<path fill="none" stroke="black" d="M2124,-84.83C2124,-101.86 2124,-124.8 2124,-124.8 2124,-124.8 1534.06,-124.8 1534.06,-124.8"/>
<polygon fill="black" stroke="black" points="1534.06,-121.3 1524.06,-124.8 1534.06,-128.3 1534.06,-121.3"/>
</g>
<!-- emp.EmpresaGridComponent -->
<g id="node7" class="node">
<title>emp.EmpresaGridComponent</title>
<polygon fill="#ffffb3" stroke="black" points="2004.57,-84.8 1821.43,-84.8 1821.43,-48.8 2004.57,-48.8 2004.57,-84.8"/>
<text text-anchor="middle" x="1913" y="-62.6" font-family="Times,serif" font-size="14.00">emp.EmpresaGridComponent</text>
</g>
<!-- emp.EmpresaGridComponent&#45;&gt;SegurancaModule -->
<g id="edge7" class="edge">
<title>emp.EmpresaGridComponent&#45;&gt;SegurancaModule</title>
<path fill="none" stroke="black" d="M1913,-84.81C1913,-100.85 1913,-121.8 1913,-121.8 1913,-121.8 1534.03,-121.8 1534.03,-121.8"/>
<polygon fill="black" stroke="black" points="1534.03,-118.3 1524.03,-121.8 1534.03,-125.3 1534.03,-118.3"/>
</g>
<!-- parametro.ParametroComponent -->
<g id="node8" class="node">
<title>parametro.ParametroComponent</title>
<polygon fill="#ffffb3" stroke="black" points="1803.61,-84.8 1604.39,-84.8 1604.39,-48.8 1803.61,-48.8 1803.61,-84.8"/>
<text text-anchor="middle" x="1704" y="-62.6" font-family="Times,serif" font-size="14.00">parametro.ParametroComponent</text>
</g>
<!-- parametro.ParametroComponent&#45;&gt;SegurancaModule -->
<g id="edge8" class="edge">
<title>parametro.ParametroComponent&#45;&gt;SegurancaModule</title>
<path fill="none" stroke="black" d="M1704,-84.92C1704,-99.58 1704,-117.8 1704,-117.8 1704,-117.8 1534.08,-117.8 1534.08,-117.8"/>
<polygon fill="black" stroke="black" points="1534.08,-114.3 1524.08,-117.8 1534.08,-121.3 1534.08,-114.3"/>
</g>
<!-- parametro.ParametroContentComponent -->
<g id="node9" class="node">
<title>parametro.ParametroContentComponent</title>
<polygon fill="#ffffb3" stroke="black" points="1586.94,-84.8 1343.06,-84.8 1343.06,-48.8 1586.94,-48.8 1586.94,-84.8"/>
<text text-anchor="middle" x="1465" y="-62.6" font-family="Times,serif" font-size="14.00">parametro.ParametroContentComponent</text>
</g>
<!-- parametro.ParametroContentComponent&#45;&gt;SegurancaModule -->
<g id="edge9" class="edge">
<title>parametro.ParametroContentComponent&#45;&gt;SegurancaModule</title>
<path fill="none" stroke="black" d="M1465,-84.91C1465,-84.91 1465,-103.79 1465,-103.79"/>
<polygon fill="black" stroke="black" points="1461.5,-103.79 1465,-113.79 1468.5,-103.79 1461.5,-103.79"/>
</g>
<!-- parametro.ParametroGridComponent -->
<g id="node10" class="node">
<title>parametro.ParametroGridComponent</title>
<polygon fill="#ffffb3" stroke="black" points="1325.27,-84.8 1100.73,-84.8 1100.73,-48.8 1325.27,-48.8 1325.27,-84.8"/>
<text text-anchor="middle" x="1213" y="-62.6" font-family="Times,serif" font-size="14.00">parametro.ParametroGridComponent</text>
</g>
<!-- parametro.ParametroGridComponent&#45;&gt;SegurancaModule -->
<g id="edge10" class="edge">
<title>parametro.ParametroGridComponent&#45;&gt;SegurancaModule</title>
<path fill="none" stroke="black" d="M1213,-84.92C1213,-99.58 1213,-117.8 1213,-117.8 1213,-117.8 1395.92,-117.8 1395.92,-117.8"/>
<polygon fill="black" stroke="black" points="1395.92,-121.3 1405.92,-117.8 1395.92,-114.3 1395.92,-121.3"/>
</g>
<!-- perfil.PerfilComponent -->
<g id="node11" class="node">
<title>perfil.PerfilComponent</title>
<polygon fill="#ffffb3" stroke="black" points="1082.25,-84.8 935.75,-84.8 935.75,-48.8 1082.25,-48.8 1082.25,-84.8"/>
<text text-anchor="middle" x="1009" y="-62.6" font-family="Times,serif" font-size="14.00">perfil.PerfilComponent</text>
</g>
<!-- perfil.PerfilComponent&#45;&gt;SegurancaModule -->
<g id="edge11" class="edge">
<title>perfil.PerfilComponent&#45;&gt;SegurancaModule</title>
<path fill="none" stroke="black" d="M984.63,-84.83C984.63,-101.86 984.63,-124.8 984.63,-124.8 984.63,-124.8 1396.1,-124.8 1396.1,-124.8"/>
<polygon fill="black" stroke="black" points="1396.1,-128.3 1406.1,-124.8 1396.1,-121.3 1396.1,-128.3"/>
</g>
<!-- perfil.PerfilComponent&#45;&gt;SegurancaModule -->
<g id="edge12" class="edge">
<title>perfil.PerfilComponent&#45;&gt;SegurancaModule</title>
<path fill="none" stroke="black" d="M1033.37,-84.81C1033.37,-100.85 1033.37,-121.8 1033.37,-121.8 1033.37,-121.8 1395.89,-121.8 1395.89,-121.8"/>
<polygon fill="black" stroke="black" points="1395.89,-125.3 1405.89,-121.8 1395.89,-118.3 1395.89,-125.3"/>
</g>
<!-- perfil.PerfilContentComponent -->
<g id="node12" class="node">
<title>perfil.PerfilContentComponent</title>
<polygon fill="#ffffb3" stroke="black" points="918.08,-84.8 727.92,-84.8 727.92,-48.8 918.08,-48.8 918.08,-84.8"/>
<text text-anchor="middle" x="823" y="-62.6" font-family="Times,serif" font-size="14.00">perfil.PerfilContentComponent</text>
</g>
<!-- perfil.PerfilContentComponent&#45;&gt;SegurancaModule -->
<g id="edge13" class="edge">
<title>perfil.PerfilContentComponent&#45;&gt;SegurancaModule</title>
<path fill="none" stroke="black" d="M823,-85.07C823,-103.36 823,-128.8 823,-128.8 823,-128.8 1396.04,-128.8 1396.04,-128.8"/>
<polygon fill="black" stroke="black" points="1396.04,-132.3 1406.04,-128.8 1396.04,-125.3 1396.04,-132.3"/>
</g>
<!-- perfil.PerfilGridComponent -->
<g id="node13" class="node">
<title>perfil.PerfilGridComponent</title>
<polygon fill="#ffffb3" stroke="black" points="709.91,-84.8 538.09,-84.8 538.09,-48.8 709.91,-48.8 709.91,-84.8"/>
<text text-anchor="middle" x="624" y="-62.6" font-family="Times,serif" font-size="14.00">perfil.PerfilGridComponent</text>
</g>
<!-- perfil.PerfilGridComponent&#45;&gt;SegurancaModule -->
<g id="edge14" class="edge">
<title>perfil.PerfilGridComponent&#45;&gt;SegurancaModule</title>
<path fill="none" stroke="black" d="M652.65,-84.91C652.65,-104.14 652.65,-131.8 652.65,-131.8 652.65,-131.8 1395.92,-131.8 1395.92,-131.8"/>
<polygon fill="black" stroke="black" points="1395.92,-135.3 1405.92,-131.8 1395.92,-128.3 1395.92,-135.3"/>
</g>
<!-- perfil.PerfilGridComponent&#45;&gt;SegurancaModule -->
<g id="edge15" class="edge">
<title>perfil.PerfilGridComponent&#45;&gt;SegurancaModule</title>
<path fill="none" stroke="black" d="M595.35,-84.93C595.35,-105.37 595.35,-135.8 595.35,-135.8 595.35,-135.8 1395.91,-135.8 1395.91,-135.8"/>
<polygon fill="black" stroke="black" points="1395.91,-139.3 1405.91,-135.8 1395.91,-132.3 1395.91,-139.3"/>
</g>
<!-- tela.TelaComponent -->
<g id="node14" class="node">
<title>tela.TelaComponent</title>
<polygon fill="#ffffb3" stroke="black" points="519.92,-84.8 390.08,-84.8 390.08,-48.8 519.92,-48.8 519.92,-84.8"/>
<text text-anchor="middle" x="455" y="-62.6" font-family="Times,serif" font-size="14.00">tela.TelaComponent</text>
</g>
<!-- tela.TelaComponent&#45;&gt;SegurancaModule -->
<g id="edge16" class="edge">
<title>tela.TelaComponent&#45;&gt;SegurancaModule</title>
<path fill="none" stroke="black" d="M455,-84.84C455,-106.46 455,-139.8 455,-139.8 455,-139.8 1395.96,-139.8 1395.96,-139.8"/>
<polygon fill="black" stroke="black" points="1395.96,-143.3 1405.96,-139.8 1395.96,-136.3 1395.96,-143.3"/>
</g>
<!-- tela.TelaContentComponent -->
<g id="node15" class="node">
<title>tela.TelaContentComponent</title>
<polygon fill="#ffffb3" stroke="black" points="372.25,-84.8 197.75,-84.8 197.75,-48.8 372.25,-48.8 372.25,-84.8"/>
<text text-anchor="middle" x="285" y="-62.6" font-family="Times,serif" font-size="14.00">tela.TelaContentComponent</text>
</g>
<!-- tela.TelaContentComponent&#45;&gt;SegurancaModule -->
<g id="edge17" class="edge">
<title>tela.TelaContentComponent&#45;&gt;SegurancaModule</title>
<path fill="none" stroke="black" d="M285,-84.81C285,-107.29 285,-142.8 285,-142.8 285,-142.8 1396.08,-142.8 1396.08,-142.8"/>
<polygon fill="black" stroke="black" points="1396.08,-146.3 1406.08,-142.8 1396.08,-139.3 1396.08,-146.3"/>
</g>
<!-- tela.TelaGridComponent -->
<g id="node16" class="node">
<title>tela.TelaGridComponent</title>
<polygon fill="#ffffb3" stroke="black" points="179.57,-84.8 24.43,-84.8 24.43,-48.8 179.57,-48.8 179.57,-84.8"/>
<text text-anchor="middle" x="102" y="-62.6" font-family="Times,serif" font-size="14.00">tela.TelaGridComponent</text>
</g>
<!-- tela.TelaGridComponent&#45;&gt;SegurancaModule -->
<g id="edge18" class="edge">
<title>tela.TelaGridComponent&#45;&gt;SegurancaModule</title>
<path fill="none" stroke="black" d="M102,-84.95C102,-108.56 102,-146.8 102,-146.8 102,-146.8 1396,-146.8 1396,-146.8"/>
<polygon fill="black" stroke="black" points="1396,-150.3 1406,-146.8 1396,-143.3 1396,-150.3"/>
</g>
<!-- SegurancaRoutingModule -->
<g id="node18" class="node">
<title>SegurancaRoutingModule</title>
<polygon fill="#8dd3c7" stroke="black" points="3374.47,-84.8 3371.47,-88.8 3350.47,-88.8 3347.47,-84.8 3211.53,-84.8 3211.53,-48.8 3374.47,-48.8 3374.47,-84.8"/>
<text text-anchor="middle" x="3293" y="-62.6" font-family="Times,serif" font-size="14.00">SegurancaRoutingModule</text>
</g>
<!-- SegurancaRoutingModule&#45;&gt;SegurancaModule -->
<g id="edge19" class="edge">
<title>SegurancaRoutingModule&#45;&gt;SegurancaModule</title>
<path fill="none" stroke="black" d="M3293,-84.95C3293,-108.56 3293,-146.8 3293,-146.8 3293,-146.8 1534.01,-146.8 1534.01,-146.8"/>
<polygon fill="black" stroke="black" points="1534.01,-143.3 1524.01,-146.8 1534.01,-150.3 1534.01,-143.3"/>
</g>
</g>
</svg>
