<?xml version="1.0" encoding="UTF-8" standalone="no"?>
<!DOCTYPE svg PUBLIC "-//W3C//DTD SVG 1.1//EN"
 "http://www.w3.org/Graphics/SVG/1.1/DTD/svg11.dtd">
<!-- Generated by graphviz version 2.47.3 (20210619.1520)
 -->
<!-- Title: dependencies Pages: 1 -->
<svg width="5614pt" height="247pt"
 viewBox="0.00 0.00 5614.00 246.80" xmlns="http://www.w3.org/2000/svg" xmlns:xlink="http://www.w3.org/1999/xlink">
<g id="graph0" class="graph" transform="scale(1 1) rotate(0) translate(4 242.8)">
<title>dependencies</title>
<polygon fill="white" stroke="transparent" points="-4,4 -4,-242.8 5610,-242.8 5610,4 -4,4"/>
<text text-anchor="middle" x="2803" y="-8.2" font-family="sans-serif" font-size="14.00">dependencies</text>
<g id="clust1" class="cluster">
<title>cluster_RepresentanteModule</title>
<polygon fill="none" stroke="black" stroke-dasharray="1,5" points="8,-32.8 8,-230.8 5598,-230.8 5598,-32.8 8,-32.8"/>
</g>
<g id="clust2" class="cluster">
<title>cluster_RepresentanteModule_declarations</title>
<polygon fill="none" stroke="black" points="360,-40.8 360,-92.8 5590,-92.8 5590,-40.8 360,-40.8"/>
</g>
<g id="clust34" class="cluster">
<title>cluster_RepresentanteModule_exports</title>
<polygon fill="none" stroke="black" points="2723,-170.8 2723,-222.8 2992,-222.8 2992,-170.8 2723,-170.8"/>
</g>
<g id="clust33" class="cluster">
<title>cluster_RepresentanteModule_imports</title>
<polygon fill="none" stroke="black" points="16,-40.8 16,-92.8 352,-92.8 352,-40.8 16,-40.8"/>
</g>
<!-- AnexoComponent -->
<g id="node1" class="node">
<title>AnexoComponent</title>
<polygon fill="#ffffb3" stroke="black" points="5582.15,-84.8 5463.85,-84.8 5463.85,-48.8 5582.15,-48.8 5582.15,-84.8"/>
<text text-anchor="middle" x="5523" y="-62.6" font-family="Times,serif" font-size="14.00">AnexoComponent</text>
</g>
<!-- RepresentanteModule -->
<g id="node31" class="node">
<title>RepresentanteModule</title>
<polygon fill="#8dd3c7" stroke="black" points="2993.35,-149.8 2990.35,-153.8 2969.35,-153.8 2966.35,-149.8 2854.65,-149.8 2854.65,-113.8 2993.35,-113.8 2993.35,-149.8"/>
<text text-anchor="middle" x="2924" y="-127.6" font-family="Times,serif" font-size="14.00">RepresentanteModule</text>
</g>
<!-- AnexoComponent&#45;&gt;RepresentanteModule -->
<g id="edge1" class="edge">
<title>AnexoComponent&#45;&gt;RepresentanteModule</title>
<path fill="none" stroke="black" d="M5523,-85.18C5523,-109.08 5523,-147.8 5523,-147.8 5523,-147.8 3003.52,-147.8 3003.52,-147.8"/>
<polygon fill="black" stroke="black" points="3003.52,-144.3 2993.52,-147.8 3003.52,-151.3 3003.52,-144.3"/>
</g>
<!-- AutorizacaoretiradaComponent -->
<g id="node2" class="node">
<title>AutorizacaoretiradaComponent</title>
<polygon fill="#ffffb3" stroke="black" points="5445.49,-84.8 5252.51,-84.8 5252.51,-48.8 5445.49,-48.8 5445.49,-84.8"/>
<text text-anchor="middle" x="5349" y="-62.6" font-family="Times,serif" font-size="14.00">AutorizacaoretiradaComponent</text>
</g>
<!-- AutorizacaoretiradaComponent&#45;&gt;RepresentanteModule -->
<g id="edge2" class="edge">
<title>AutorizacaoretiradaComponent&#45;&gt;RepresentanteModule</title>
<path fill="none" stroke="black" d="M5349,-85.12C5349,-108.46 5349,-145.8 5349,-145.8 5349,-145.8 3003.64,-145.8 3003.64,-145.8"/>
<polygon fill="black" stroke="black" points="3003.64,-142.3 2993.64,-145.8 3003.64,-149.3 3003.64,-142.3"/>
</g>
<!-- BookComponent -->
<g id="node3" class="node">
<title>BookComponent</title>
<polygon fill="#ffffb3" stroke="black" points="5234.67,-84.8 5123.33,-84.8 5123.33,-48.8 5234.67,-48.8 5234.67,-84.8"/>
<text text-anchor="middle" x="5179" y="-62.6" font-family="Times,serif" font-size="14.00">BookComponent</text>
</g>
<!-- BookComponent&#45;&gt;RepresentanteModule -->
<g id="edge3" class="edge">
<title>BookComponent&#45;&gt;RepresentanteModule</title>
<path fill="none" stroke="black" d="M5179,-85.05C5179,-107.82 5179,-143.8 5179,-143.8 5179,-143.8 3003.65,-143.8 3003.65,-143.8"/>
<polygon fill="black" stroke="black" points="3003.65,-140.3 2993.65,-143.8 3003.65,-147.3 3003.65,-140.3"/>
</g>
<!-- ClientComponent -->
<g id="node4" class="node">
<title>ClientComponent</title>
<polygon fill="#ffffb3" stroke="black" points="5104.56,-84.8 4989.44,-84.8 4989.44,-48.8 5104.56,-48.8 5104.56,-84.8"/>
<text text-anchor="middle" x="5047" y="-62.6" font-family="Times,serif" font-size="14.00">ClientComponent</text>
</g>
<!-- ClientComponent&#45;&gt;RepresentanteModule -->
<g id="edge4" class="edge">
<title>ClientComponent&#45;&gt;RepresentanteModule</title>
<path fill="none" stroke="black" d="M5047,-85.09C5047,-107.01 5047,-140.8 5047,-140.8 5047,-140.8 3003.43,-140.8 3003.43,-140.8"/>
<polygon fill="black" stroke="black" points="3003.43,-137.3 2993.43,-140.8 3003.43,-144.3 3003.43,-137.3"/>
</g>
<!-- ClientGridComponent -->
<g id="node5" class="node">
<title>ClientGridComponent</title>
<polygon fill="#ffffb3" stroke="black" points="4971.71,-84.8 4830.29,-84.8 4830.29,-48.8 4971.71,-48.8 4971.71,-84.8"/>
<text text-anchor="middle" x="4901" y="-62.6" font-family="Times,serif" font-size="14.00">ClientGridComponent</text>
</g>
<!-- ClientGridComponent&#45;&gt;RepresentanteModule -->
<g id="edge5" class="edge">
<title>ClientGridComponent&#45;&gt;RepresentanteModule</title>
<path fill="none" stroke="black" d="M4901,-84.97C4901,-106.3 4901,-138.8 4901,-138.8 4901,-138.8 3003.49,-138.8 3003.49,-138.8"/>
<polygon fill="black" stroke="black" points="3003.49,-135.3 2993.49,-138.8 3003.49,-142.3 3003.49,-135.3"/>
</g>
<!-- ClientPerfilComponent -->
<g id="node6" class="node">
<title>ClientPerfilComponent</title>
<polygon fill="#ffffb3" stroke="black" points="4812.16,-84.8 4665.84,-84.8 4665.84,-48.8 4812.16,-48.8 4812.16,-84.8"/>
<text text-anchor="middle" x="4739" y="-62.6" font-family="Times,serif" font-size="14.00">ClientPerfilComponent</text>
</g>
<!-- ClientPerfilComponent&#45;&gt;RepresentanteModule -->
<g id="edge6" class="edge">
<title>ClientPerfilComponent&#45;&gt;RepresentanteModule</title>
<path fill="none" stroke="black" d="M4739,-84.83C4739,-105.57 4739,-136.8 4739,-136.8 4739,-136.8 3003.48,-136.8 3003.48,-136.8"/>
<polygon fill="black" stroke="black" points="3003.48,-133.3 2993.48,-136.8 3003.48,-140.3 3003.48,-133.3"/>
</g>
<!-- Client_detailsComponent -->
<g id="node7" class="node">
<title>Client_detailsComponent</title>
<polygon fill="#ffffb3" stroke="black" points="4647.6,-84.8 4488.4,-84.8 4488.4,-48.8 4647.6,-48.8 4647.6,-84.8"/>
<text text-anchor="middle" x="4568" y="-62.6" font-family="Times,serif" font-size="14.00">Client_detailsComponent</text>
</g>
<!-- Client_detailsComponent&#45;&gt;RepresentanteModule -->
<g id="edge7" class="edge">
<title>Client_detailsComponent&#45;&gt;RepresentanteModule</title>
<path fill="none" stroke="black" d="M4568,-85.02C4568,-105.17 4568,-134.8 4568,-134.8 4568,-134.8 3003.59,-134.8 3003.59,-134.8"/>
<polygon fill="black" stroke="black" points="3003.59,-131.3 2993.59,-134.8 3003.59,-138.3 3003.59,-131.3"/>
</g>
<!-- ClientesComponent -->
<g id="node8" class="node">
<title>ClientesComponent</title>
<polygon fill="#ffffb3" stroke="black" points="4470.71,-84.8 4343.29,-84.8 4343.29,-48.8 4470.71,-48.8 4470.71,-84.8"/>
<text text-anchor="middle" x="4407" y="-62.6" font-family="Times,serif" font-size="14.00">ClientesComponent</text>
</g>
<!-- ClientesComponent&#45;&gt;RepresentanteModule -->
<g id="edge8" class="edge">
<title>ClientesComponent&#45;&gt;RepresentanteModule</title>
<path fill="none" stroke="black" d="M4407,-84.91C4407,-104.14 4407,-131.8 4407,-131.8 4407,-131.8 3003.54,-131.8 3003.54,-131.8"/>
<polygon fill="black" stroke="black" points="3003.54,-128.3 2993.54,-131.8 3003.54,-135.3 3003.54,-128.3"/>
</g>
<!-- ComissaoComponent -->
<g id="node9" class="node">
<title>ComissaoComponent</title>
<polygon fill="#ffffb3" stroke="black" points="4325.05,-84.8 4188.95,-84.8 4188.95,-48.8 4325.05,-48.8 4325.05,-84.8"/>
<text text-anchor="middle" x="4257" y="-62.6" font-family="Times,serif" font-size="14.00">ComissaoComponent</text>
</g>
<!-- ComissaoComponent&#45;&gt;RepresentanteModule -->
<g id="edge9" class="edge">
<title>ComissaoComponent&#45;&gt;RepresentanteModule</title>
<path fill="none" stroke="black" d="M4257,-85.02C4257,-103.63 4257,-129.8 4257,-129.8 4257,-129.8 3003.79,-129.8 3003.79,-129.8"/>
<polygon fill="black" stroke="black" points="3003.79,-126.3 2993.79,-129.8 3003.79,-133.3 3003.79,-126.3"/>
</g>
<!-- DetailEstoqueComponentComponent -->
<g id="node10" class="node">
<title>DetailEstoqueComponentComponent</title>
<polygon fill="#ffffb3" stroke="black" points="4170.97,-84.8 3945.03,-84.8 3945.03,-48.8 4170.97,-48.8 4170.97,-84.8"/>
<text text-anchor="middle" x="4058" y="-62.6" font-family="Times,serif" font-size="14.00">DetailEstoqueComponentComponent</text>
</g>
<!-- DetailEstoqueComponentComponent&#45;&gt;RepresentanteModule -->
<g id="edge10" class="edge">
<title>DetailEstoqueComponentComponent&#45;&gt;RepresentanteModule</title>
<path fill="none" stroke="black" d="M4058,-85.1C4058,-103.07 4058,-127.8 4058,-127.8 4058,-127.8 3003.65,-127.8 3003.65,-127.8"/>
<polygon fill="black" stroke="black" points="3003.65,-124.3 2993.65,-127.8 3003.65,-131.3 3003.65,-124.3"/>
</g>
<!-- DinamicFilterComponent -->
<g id="node11" class="node">
<title>DinamicFilterComponent</title>
<polygon fill="#ffffb3" stroke="black" points="3926.87,-84.8 3767.13,-84.8 3767.13,-48.8 3926.87,-48.8 3926.87,-84.8"/>
<text text-anchor="middle" x="3847" y="-62.6" font-family="Times,serif" font-size="14.00">DinamicFilterComponent</text>
</g>
<!-- DinamicFilterComponent&#45;&gt;RepresentanteModule -->
<g id="edge11" class="edge">
<title>DinamicFilterComponent&#45;&gt;RepresentanteModule</title>
<path fill="none" stroke="black" d="M3847,-84.82C3847,-102.17 3847,-125.8 3847,-125.8 3847,-125.8 3003.38,-125.8 3003.38,-125.8"/>
<polygon fill="black" stroke="black" points="3003.38,-122.3 2993.38,-125.8 3003.37,-129.3 3003.38,-122.3"/>
</g>
<!-- EstoqueComponent -->
<g id="node12" class="node">
<title>EstoqueComponent</title>
<polygon fill="#ffffb3" stroke="black" points="3749.44,-84.8 3622.56,-84.8 3622.56,-48.8 3749.44,-48.8 3749.44,-84.8"/>
<text text-anchor="middle" x="3686" y="-62.6" font-family="Times,serif" font-size="14.00">EstoqueComponent</text>
</g>
<!-- EstoqueComponent&#45;&gt;RepresentanteModule -->
<g id="edge12" class="edge">
<title>EstoqueComponent&#45;&gt;RepresentanteModule</title>
<path fill="none" stroke="black" d="M3686,-84.83C3686,-101.2 3686,-122.8 3686,-122.8 3686,-122.8 3003.64,-122.8 3003.64,-122.8"/>
<polygon fill="black" stroke="black" points="3003.64,-119.3 2993.64,-122.8 3003.64,-126.3 3003.64,-119.3"/>
</g>
<!-- EstoqueContentComponent -->
<g id="node13" class="node">
<title>EstoqueContentComponent</title>
<polygon fill="#ffffb3" stroke="black" points="3604.27,-84.8 3433.73,-84.8 3433.73,-48.8 3604.27,-48.8 3604.27,-84.8"/>
<text text-anchor="middle" x="3519" y="-62.6" font-family="Times,serif" font-size="14.00">EstoqueContentComponent</text>
</g>
<!-- EstoqueContentComponent&#45;&gt;RepresentanteModule -->
<g id="edge13" class="edge">
<title>EstoqueContentComponent&#45;&gt;RepresentanteModule</title>
<path fill="none" stroke="black" d="M3519,-85.08C3519,-100.75 3519,-120.8 3519,-120.8 3519,-120.8 3003.42,-120.8 3003.42,-120.8"/>
<polygon fill="black" stroke="black" points="3003.42,-117.3 2993.42,-120.8 3003.42,-124.3 3003.42,-117.3"/>
</g>
<!-- EstoqueGridComponent -->
<g id="node14" class="node">
<title>EstoqueGridComponent</title>
<polygon fill="#ffffb3" stroke="black" points="3416.09,-84.8 3263.91,-84.8 3263.91,-48.8 3416.09,-48.8 3416.09,-84.8"/>
<text text-anchor="middle" x="3340" y="-62.6" font-family="Times,serif" font-size="14.00">EstoqueGridComponent</text>
</g>
<!-- EstoqueGridComponent&#45;&gt;RepresentanteModule -->
<g id="edge14" class="edge">
<title>EstoqueGridComponent&#45;&gt;RepresentanteModule</title>
<path fill="none" stroke="black" d="M3340,-84.99C3340,-99.98 3340,-118.8 3340,-118.8 3340,-118.8 3003.63,-118.8 3003.63,-118.8"/>
<polygon fill="black" stroke="black" points="3003.63,-115.3 2993.63,-118.8 3003.63,-122.3 3003.63,-115.3"/>
</g>
<!-- FinanceiroComponent -->
<g id="node15" class="node">
<title>FinanceiroComponent</title>
<polygon fill="#ffffb3" stroke="black" points="3245.7,-84.8 3104.3,-84.8 3104.3,-48.8 3245.7,-48.8 3245.7,-84.8"/>
<text text-anchor="middle" x="3175" y="-62.6" font-family="Times,serif" font-size="14.00">FinanceiroComponent</text>
</g>
<!-- FinanceiroComponent&#45;&gt;RepresentanteModule -->
<g id="edge15" class="edge">
<title>FinanceiroComponent&#45;&gt;RepresentanteModule</title>
<path fill="none" stroke="black" d="M3175,-84.85C3175,-99.17 3175,-116.8 3175,-116.8 3175,-116.8 3003.58,-116.8 3003.58,-116.8"/>
<polygon fill="black" stroke="black" points="3003.58,-113.3 2993.58,-116.8 3003.58,-120.3 3003.58,-113.3"/>
</g>
<!-- FinanceiroGridComponent -->
<g id="node16" class="node">
<title>FinanceiroGridComponent</title>
<polygon fill="#ffffb3" stroke="black" points="3086.36,-84.8 2919.64,-84.8 2919.64,-48.8 3086.36,-48.8 3086.36,-84.8"/>
<text text-anchor="middle" x="3003" y="-62.6" font-family="Times,serif" font-size="14.00">FinanceiroGridComponent</text>
</g>
<!-- FinanceiroGridComponent&#45;&gt;RepresentanteModule -->
<g id="edge16" class="edge">
<title>FinanceiroGridComponent&#45;&gt;RepresentanteModule</title>
<path fill="none" stroke="black" d="M2956.5,-84.91C2956.5,-84.91 2956.5,-103.79 2956.5,-103.79"/>
<polygon fill="black" stroke="black" points="2953,-103.79 2956.5,-113.79 2960,-103.79 2953,-103.79"/>
</g>
<!-- GeralComponent -->
<g id="node17" class="node">
<title>GeralComponent</title>
<polygon fill="#ffffb3" stroke="black" points="2901.42,-84.8 2788.58,-84.8 2788.58,-48.8 2901.42,-48.8 2901.42,-84.8"/>
<text text-anchor="middle" x="2845" y="-62.6" font-family="Times,serif" font-size="14.00">GeralComponent</text>
</g>
<!-- GeralComponent&#45;&gt;RepresentanteModule -->
<g id="edge17" class="edge">
<title>GeralComponent&#45;&gt;RepresentanteModule</title>
<path fill="none" stroke="black" d="M2877.89,-84.91C2877.89,-84.91 2877.89,-103.79 2877.89,-103.79"/>
<polygon fill="black" stroke="black" points="2874.39,-103.79 2877.89,-113.79 2881.39,-103.79 2874.39,-103.79"/>
</g>
<!-- GridClientPerfilComponent -->
<g id="node18" class="node">
<title>GridClientPerfilComponent</title>
<polygon fill="#ffffb3" stroke="black" points="2771.31,-84.8 2598.69,-84.8 2598.69,-48.8 2771.31,-48.8 2771.31,-84.8"/>
<text text-anchor="middle" x="2685" y="-62.6" font-family="Times,serif" font-size="14.00">GridClientPerfilComponent</text>
</g>
<!-- GridClientPerfilComponent&#45;&gt;RepresentanteModule -->
<g id="edge18" class="edge">
<title>GridClientPerfilComponent&#45;&gt;RepresentanteModule</title>
<path fill="none" stroke="black" d="M2751.1,-84.85C2751.1,-99.17 2751.1,-116.8 2751.1,-116.8 2751.1,-116.8 2844.17,-116.8 2844.17,-116.8"/>
<polygon fill="black" stroke="black" points="2844.17,-120.3 2854.17,-116.8 2844.17,-113.3 2844.17,-120.3"/>
</g>
<!-- GridNotaFiscalComponent -->
<g id="node19" class="node">
<title>GridNotaFiscalComponent</title>
<polygon fill="#ffffb3" stroke="black" points="2580.64,-84.8 2413.36,-84.8 2413.36,-48.8 2580.64,-48.8 2580.64,-84.8"/>
<text text-anchor="middle" x="2497" y="-62.6" font-family="Times,serif" font-size="14.00">GridNotaFiscalComponent</text>
</g>
<!-- GridNotaFiscalComponent&#45;&gt;RepresentanteModule -->
<g id="edge19" class="edge">
<title>GridNotaFiscalComponent&#45;&gt;RepresentanteModule</title>
<path fill="none" stroke="black" d="M2497,-84.99C2497,-99.98 2497,-118.8 2497,-118.8 2497,-118.8 2844.44,-118.8 2844.44,-118.8"/>
<polygon fill="black" stroke="black" points="2844.44,-122.3 2854.44,-118.8 2844.44,-115.3 2844.44,-122.3"/>
</g>
<!-- GridSolicitacaoDevolucaoComponent -->
<g id="node20" class="node">
<title>GridSolicitacaoDevolucaoComponent</title>
<polygon fill="#ffffb3" stroke="black" points="2394.83,-84.8 2165.17,-84.8 2165.17,-48.8 2394.83,-48.8 2394.83,-84.8"/>
<text text-anchor="middle" x="2280" y="-62.6" font-family="Times,serif" font-size="14.00">GridSolicitacaoDevolucaoComponent</text>
</g>
<!-- GridSolicitacaoDevolucaoComponent&#45;&gt;RepresentanteModule -->
<g id="edge20" class="edge">
<title>GridSolicitacaoDevolucaoComponent&#45;&gt;RepresentanteModule</title>
<path fill="none" stroke="black" d="M2280,-85.08C2280,-100.75 2280,-120.8 2280,-120.8 2280,-120.8 2844.47,-120.8 2844.47,-120.8"/>
<polygon fill="black" stroke="black" points="2844.47,-124.3 2854.47,-120.8 2844.47,-117.3 2844.47,-124.3"/>
</g>
<!-- IniciorepresentanteComponent -->
<g id="node21" class="node">
<title>IniciorepresentanteComponent</title>
<polygon fill="#ffffb3" stroke="black" points="2147.11,-84.8 1958.89,-84.8 1958.89,-48.8 2147.11,-48.8 2147.11,-84.8"/>
<text text-anchor="middle" x="2053" y="-62.6" font-family="Times,serif" font-size="14.00">IniciorepresentanteComponent</text>
</g>
<!-- IniciorepresentanteComponent&#45;&gt;RepresentanteModule -->
<g id="edge21" class="edge">
<title>IniciorepresentanteComponent&#45;&gt;RepresentanteModule</title>
<path fill="none" stroke="black" d="M2053,-84.83C2053,-101.2 2053,-122.8 2053,-122.8 2053,-122.8 2844.56,-122.8 2844.56,-122.8"/>
<polygon fill="black" stroke="black" points="2844.56,-126.3 2854.56,-122.8 2844.56,-119.3 2844.56,-126.3"/>
</g>
<!-- Min_loadingComponent -->
<g id="node22" class="node">
<title>Min_loadingComponent</title>
<polygon fill="#ffffb3" stroke="black" points="1940.66,-84.8 1787.34,-84.8 1787.34,-48.8 1940.66,-48.8 1940.66,-84.8"/>
<text text-anchor="middle" x="1864" y="-62.6" font-family="Times,serif" font-size="14.00">Min_loadingComponent</text>
</g>
<!-- Min_loadingComponent&#45;&gt;RepresentanteModule -->
<g id="edge22" class="edge">
<title>Min_loadingComponent&#45;&gt;RepresentanteModule</title>
<path fill="none" stroke="black" d="M1864,-84.82C1864,-102.17 1864,-125.8 1864,-125.8 1864,-125.8 2844.45,-125.8 2844.45,-125.8"/>
<polygon fill="black" stroke="black" points="2844.45,-129.3 2854.45,-125.8 2844.45,-122.3 2844.45,-129.3"/>
</g>
<!-- NotaFiscalComponent -->
<g id="node23" class="node">
<title>NotaFiscalComponent</title>
<polygon fill="#ffffb3" stroke="black" points="1768.98,-84.8 1627.02,-84.8 1627.02,-48.8 1768.98,-48.8 1768.98,-84.8"/>
<text text-anchor="middle" x="1698" y="-62.6" font-family="Times,serif" font-size="14.00">NotaFiscalComponent</text>
</g>
<!-- NotaFiscalComponent&#45;&gt;RepresentanteModule -->
<g id="edge23" class="edge">
<title>NotaFiscalComponent&#45;&gt;RepresentanteModule</title>
<path fill="none" stroke="black" d="M1698,-85.1C1698,-103.07 1698,-127.8 1698,-127.8 1698,-127.8 2844.57,-127.8 2844.57,-127.8"/>
<polygon fill="black" stroke="black" points="2844.57,-131.3 2854.57,-127.8 2844.57,-124.3 2844.57,-131.3"/>
</g>
<!-- PedidoandamentoComponent -->
<g id="node24" class="node">
<title>PedidoandamentoComponent</title>
<polygon fill="#ffffb3" stroke="black" points="1608.65,-84.8 1427.35,-84.8 1427.35,-48.8 1608.65,-48.8 1608.65,-84.8"/>
<text text-anchor="middle" x="1518" y="-62.6" font-family="Times,serif" font-size="14.00">PedidoandamentoComponent</text>
</g>
<!-- PedidoandamentoComponent&#45;&gt;RepresentanteModule -->
<g id="edge24" class="edge">
<title>PedidoandamentoComponent&#45;&gt;RepresentanteModule</title>
<path fill="none" stroke="black" d="M1518,-85.02C1518,-103.63 1518,-129.8 1518,-129.8 1518,-129.8 2844.28,-129.8 2844.28,-129.8"/>
<polygon fill="black" stroke="black" points="2844.28,-133.3 2854.28,-129.8 2844.28,-126.3 2844.28,-133.3"/>
</g>
<!-- PedidosComponent -->
<g id="node25" class="node">
<title>PedidosComponent</title>
<polygon fill="#ffffb3" stroke="black" points="1408.67,-84.8 1283.33,-84.8 1283.33,-48.8 1408.67,-48.8 1408.67,-84.8"/>
<text text-anchor="middle" x="1346" y="-62.6" font-family="Times,serif" font-size="14.00">PedidosComponent</text>
</g>
<!-- PedidosComponent&#45;&gt;RepresentanteModule -->
<g id="edge25" class="edge">
<title>PedidosComponent&#45;&gt;RepresentanteModule</title>
<path fill="none" stroke="black" d="M1346,-84.91C1346,-104.14 1346,-131.8 1346,-131.8 1346,-131.8 2844.42,-131.8 2844.42,-131.8"/>
<polygon fill="black" stroke="black" points="2844.42,-135.3 2854.42,-131.8 2844.42,-128.3 2844.42,-135.3"/>
</g>
<!-- ProgramadosComponent -->
<g id="node26" class="node">
<title>ProgramadosComponent</title>
<polygon fill="#ffffb3" stroke="black" points="1265.7,-84.8 1110.3,-84.8 1110.3,-48.8 1265.7,-48.8 1265.7,-84.8"/>
<text text-anchor="middle" x="1188" y="-62.6" font-family="Times,serif" font-size="14.00">ProgramadosComponent</text>
</g>
<!-- ProgramadosComponent&#45;&gt;RepresentanteModule -->
<g id="edge26" class="edge">
<title>ProgramadosComponent&#45;&gt;RepresentanteModule</title>
<path fill="none" stroke="black" d="M1188,-85.02C1188,-105.17 1188,-134.8 1188,-134.8 1188,-134.8 2844.61,-134.8 2844.61,-134.8"/>
<polygon fill="black" stroke="black" points="2844.61,-138.3 2854.61,-134.8 2844.61,-131.3 2844.61,-138.3"/>
</g>
<!-- ReportEstoqueComponentComponent -->
<g id="node27" class="node">
<title>ReportEstoqueComponentComponent</title>
<polygon fill="#ffffb3" stroke="black" points="1091.87,-84.8 862.13,-84.8 862.13,-48.8 1091.87,-48.8 1091.87,-84.8"/>
<text text-anchor="middle" x="977" y="-62.6" font-family="Times,serif" font-size="14.00">ReportEstoqueComponentComponent</text>
</g>
<!-- ReportEstoqueComponentComponent&#45;&gt;RepresentanteModule -->
<g id="edge27" class="edge">
<title>ReportEstoqueComponentComponent&#45;&gt;RepresentanteModule</title>
<path fill="none" stroke="black" d="M977,-84.83C977,-105.57 977,-136.8 977,-136.8 977,-136.8 2844.42,-136.8 2844.42,-136.8"/>
<polygon fill="black" stroke="black" points="2844.42,-140.3 2854.42,-136.8 2844.42,-133.3 2844.42,-140.3"/>
</g>
<!-- SacComponent -->
<g id="node28" class="node">
<title>SacComponent</title>
<polygon fill="#ffffb3" stroke="black" points="843.55,-84.8 742.45,-84.8 742.45,-48.8 843.55,-48.8 843.55,-84.8"/>
<text text-anchor="middle" x="793" y="-62.6" font-family="Times,serif" font-size="14.00">SacComponent</text>
</g>
<!-- SacComponent&#45;&gt;RepresentanteModule -->
<g id="edge28" class="edge">
<title>SacComponent&#45;&gt;RepresentanteModule</title>
<path fill="none" stroke="black" d="M793,-84.97C793,-106.3 793,-138.8 793,-138.8 793,-138.8 2844.61,-138.8 2844.61,-138.8"/>
<polygon fill="black" stroke="black" points="2844.61,-142.3 2854.61,-138.8 2844.61,-135.3 2844.61,-142.3"/>
</g>
<!-- SolicitacaoDevolucaoComponent -->
<g id="node29" class="node">
<title>SolicitacaoDevolucaoComponent</title>
<polygon fill="#ffffb3" stroke="black" points="724.18,-84.8 519.82,-84.8 519.82,-48.8 724.18,-48.8 724.18,-84.8"/>
<text text-anchor="middle" x="622" y="-62.6" font-family="Times,serif" font-size="14.00">SolicitacaoDevolucaoComponent</text>
</g>
<!-- SolicitacaoDevolucaoComponent&#45;&gt;RepresentanteModule -->
<g id="edge29" class="edge">
<title>SolicitacaoDevolucaoComponent&#45;&gt;RepresentanteModule</title>
<path fill="none" stroke="black" d="M622,-85.09C622,-107.01 622,-140.8 622,-140.8 622,-140.8 2844.48,-140.8 2844.48,-140.8"/>
<polygon fill="black" stroke="black" points="2844.48,-144.3 2854.48,-140.8 2844.48,-137.3 2844.48,-144.3"/>
</g>
<!-- TabprecoComponent -->
<g id="node30" class="node">
<title>TabprecoComponent</title>
<polygon fill="#ffffb3" stroke="black" points="502.19,-84.8 367.81,-84.8 367.81,-48.8 502.19,-48.8 502.19,-84.8"/>
<text text-anchor="middle" x="435" y="-62.6" font-family="Times,serif" font-size="14.00">TabprecoComponent</text>
</g>
<!-- TabprecoComponent&#45;&gt;RepresentanteModule -->
<g id="edge30" class="edge">
<title>TabprecoComponent&#45;&gt;RepresentanteModule</title>
<path fill="none" stroke="black" d="M435,-85.05C435,-107.82 435,-143.8 435,-143.8 435,-143.8 2844.5,-143.8 2844.5,-143.8"/>
<polygon fill="black" stroke="black" points="2844.5,-147.3 2854.5,-143.8 2844.5,-140.3 2844.5,-147.3"/>
</g>
<!-- ClientComponent  -->
<g id="node34" class="node">
<title>ClientComponent </title>
<polygon fill="#fb8072" stroke="black" points="2983.56,-214.8 2864.44,-214.8 2864.44,-178.8 2983.56,-178.8 2983.56,-214.8"/>
<text text-anchor="middle" x="2924" y="-192.6" font-family="Times,serif" font-size="14.00">ClientComponent </text>
</g>
<!-- RepresentanteModule&#45;&gt;ClientComponent  -->
<g id="edge33" class="edge">
<title>RepresentanteModule&#45;&gt;ClientComponent </title>
<path fill="none" stroke="black" stroke-dasharray="5,2" d="M2943.84,-149.91C2943.84,-149.91 2943.84,-168.79 2943.84,-168.79"/>
<polygon fill="black" stroke="black" points="2940.34,-168.79 2943.84,-178.79 2947.34,-168.79 2940.34,-168.79"/>
</g>
<!-- RepresentanteModule&#45;&gt;ClientComponent  -->
<g id="edge35" class="edge">
<title>RepresentanteModule&#45;&gt;ClientComponent </title>
<path fill="none" stroke="black" stroke-dasharray="1,5" d="M2904.16,-149.91C2904.16,-149.91 2904.16,-168.79 2904.16,-168.79"/>
<polygon fill="black" stroke="black" points="2900.66,-168.79 2904.16,-178.79 2907.66,-168.79 2900.66,-168.79"/>
</g>
<!-- GeralComponent  -->
<g id="node35" class="node">
<title>GeralComponent </title>
<polygon fill="#fb8072" stroke="black" points="2846.92,-214.8 2731.08,-214.8 2731.08,-178.8 2846.92,-178.8 2846.92,-214.8"/>
<text text-anchor="middle" x="2789" y="-192.6" font-family="Times,serif" font-size="14.00">GeralComponent </text>
</g>
<!-- RepresentanteModule&#45;&gt;GeralComponent  -->
<g id="edge34" class="edge">
<title>RepresentanteModule&#45;&gt;GeralComponent </title>
<path fill="none" stroke="black" stroke-dasharray="5,2" d="M2859.52,-149.91C2859.52,-169.14 2859.52,-196.8 2859.52,-196.8 2859.52,-196.8 2857.24,-196.8 2857.24,-196.8"/>
<polygon fill="black" stroke="black" points="2857.24,-193.3 2847.24,-196.8 2857.24,-200.3 2857.24,-193.3"/>
</g>
<!-- RepresentanteRoutingModule -->
<g id="node32" class="node">
<title>RepresentanteRoutingModule</title>
<polygon fill="#8dd3c7" stroke="black" points="343.96,-84.8 340.96,-88.8 319.96,-88.8 316.96,-84.8 160.04,-84.8 160.04,-48.8 343.96,-48.8 343.96,-84.8"/>
<text text-anchor="middle" x="252" y="-62.6" font-family="Times,serif" font-size="14.00">RepresentanteRoutingModule</text>
</g>
<!-- RepresentanteRoutingModule&#45;&gt;RepresentanteModule -->
<g id="edge31" class="edge">
<title>RepresentanteRoutingModule&#45;&gt;RepresentanteModule</title>
<path fill="none" stroke="black" d="M252,-85.12C252,-108.46 252,-145.8 252,-145.8 252,-145.8 2844.59,-145.8 2844.59,-145.8"/>
<polygon fill="black" stroke="black" points="2844.59,-149.3 2854.59,-145.8 2844.59,-142.3 2844.59,-149.3"/>
</g>
<!-- SegurancaModule -->
<g id="node33" class="node">
<title>SegurancaModule</title>
<polygon fill="#8dd3c7" stroke="black" points="141.85,-84.8 138.85,-88.8 117.85,-88.8 114.85,-84.8 24.15,-84.8 24.15,-48.8 141.85,-48.8 141.85,-84.8"/>
<text text-anchor="middle" x="83" y="-62.6" font-family="Times,serif" font-size="14.00">SegurancaModule</text>
</g>
<!-- SegurancaModule&#45;&gt;RepresentanteModule -->
<g id="edge32" class="edge">
<title>SegurancaModule&#45;&gt;RepresentanteModule</title>
<path fill="none" stroke="black" d="M83,-85.18C83,-109.08 83,-147.8 83,-147.8 83,-147.8 2844.48,-147.8 2844.48,-147.8"/>
<polygon fill="black" stroke="black" points="2844.48,-151.3 2854.48,-147.8 2844.48,-144.3 2844.48,-151.3"/>
</g>
</g>
</svg>
