<?xml version="1.0" encoding="UTF-8" standalone="no"?>
<!DOCTYPE svg PUBLIC "-//W3C//DTD SVG 1.1//EN"
 "http://www.w3.org/Graphics/SVG/1.1/DTD/svg11.dtd">
<!-- Generated by graphviz version 2.47.3 (20210619.1520)
 -->
<!-- Title: dependencies Pages: 1 -->
<svg width="683pt" height="247pt"
 viewBox="0.00 0.00 683.00 246.80" xmlns="http://www.w3.org/2000/svg" xmlns:xlink="http://www.w3.org/1999/xlink">
<g id="graph0" class="graph" transform="scale(1 1) rotate(0) translate(4 242.8)">
<title>dependencies</title>
<polygon fill="white" stroke="transparent" points="-4,4 -4,-242.8 679,-242.8 679,4 -4,4"/>
<text text-anchor="middle" x="337.5" y="-8.2" font-family="sans-serif" font-size="14.00">dependencies</text>
<g id="clust1" class="cluster">
<title>cluster_AppModule</title>
<polygon fill="none" stroke="black" stroke-dasharray="1,5" points="8,-32.8 8,-230.8 667,-230.8 667,-32.8 8,-32.8"/>
</g>
<g id="clust6" class="cluster">
<title>cluster_AppModule_imports</title>
<polygon fill="none" stroke="black" points="515,-40.8 515,-92.8 659,-92.8 659,-40.8 515,-40.8"/>
</g>
<g id="clust8" class="cluster">
<title>cluster_AppModule_bootstrap</title>
<polygon fill="none" stroke="black" points="296,-170.8 296,-222.8 420,-222.8 420,-170.8 296,-170.8"/>
</g>
<g id="clust2" class="cluster">
<title>cluster_AppModule_declarations</title>
<polygon fill="none" stroke="black" points="16,-40.8 16,-92.8 507,-92.8 507,-40.8 16,-40.8"/>
</g>
<!-- AppComponent -->
<g id="node1" class="node">
<title>AppComponent</title>
<polygon fill="#ffffb3" stroke="black" points="498.94,-84.8 393.06,-84.8 393.06,-48.8 498.94,-48.8 498.94,-84.8"/>
<text text-anchor="middle" x="446" y="-62.6" font-family="Times,serif" font-size="14.00">AppComponent</text>
</g>
<!-- AppModule -->
<g id="node4" class="node">
<title>AppModule</title>
<polygon fill="#8dd3c7" stroke="black" points="399.66,-149.8 396.66,-153.8 375.66,-153.8 372.66,-149.8 316.34,-149.8 316.34,-113.8 399.66,-113.8 399.66,-149.8"/>
<text text-anchor="middle" x="358" y="-127.6" font-family="Times,serif" font-size="14.00">AppModule</text>
</g>
<!-- AppComponent&#45;&gt;AppModule -->
<g id="edge1" class="edge">
<title>AppComponent&#45;&gt;AppModule</title>
<path fill="none" stroke="black" d="M406.15,-84.82C406.15,-102.17 406.15,-125.8 406.15,-125.8 406.15,-125.8 405.52,-125.8 405.52,-125.8"/>
<polygon fill="black" stroke="black" points="409.85,-122.3 399.85,-125.8 409.85,-129.3 409.85,-122.3"/>
</g>
<!-- MainSidebarContainerComponent -->
<g id="node2" class="node">
<title>MainSidebarContainerComponent</title>
<polygon fill="#ffffb3" stroke="black" points="375.35,-84.8 166.65,-84.8 166.65,-48.8 375.35,-48.8 375.35,-84.8"/>
<text text-anchor="middle" x="271" y="-62.6" font-family="Times,serif" font-size="14.00">MainSidebarContainerComponent</text>
</g>
<!-- MainSidebarContainerComponent&#45;&gt;AppModule -->
<g id="edge2" class="edge">
<title>MainSidebarContainerComponent&#45;&gt;AppModule</title>
<path fill="none" stroke="black" d="M345.8,-84.91C345.8,-84.91 345.8,-103.79 345.8,-103.79"/>
<polygon fill="black" stroke="black" points="342.3,-103.79 345.8,-113.79 349.3,-103.79 342.3,-103.79"/>
</g>
<!-- NavBarComponent -->
<g id="node3" class="node">
<title>NavBarComponent</title>
<polygon fill="#ffffb3" stroke="black" points="148.37,-84.8 23.63,-84.8 23.63,-48.8 148.37,-48.8 148.37,-84.8"/>
<text text-anchor="middle" x="86" y="-62.6" font-family="Times,serif" font-size="14.00">NavBarComponent</text>
</g>
<!-- NavBarComponent&#45;&gt;AppModule -->
<g id="edge3" class="edge">
<title>NavBarComponent&#45;&gt;AppModule</title>
<path fill="none" stroke="black" d="M86,-84.91C86,-104.14 86,-131.8 86,-131.8 86,-131.8 306.1,-131.8 306.1,-131.8"/>
<polygon fill="black" stroke="black" points="306.1,-135.3 316.1,-131.8 306.1,-128.3 306.1,-135.3"/>
</g>
<!-- AppComponent  -->
<g id="node6" class="node">
<title>AppComponent </title>
<polygon fill="#80b1d3" stroke="black" points="412.44,-214.8 303.56,-214.8 303.56,-178.8 412.44,-178.8 412.44,-214.8"/>
<text text-anchor="middle" x="358" y="-192.6" font-family="Times,serif" font-size="14.00">AppComponent </text>
</g>
<!-- AppModule&#45;&gt;AppComponent  -->
<g id="edge5" class="edge">
<title>AppModule&#45;&gt;AppComponent </title>
<path fill="none" stroke="black" stroke-dasharray="1,5" d="M358,-149.91C358,-149.91 358,-168.79 358,-168.79"/>
<polygon fill="black" stroke="black" points="354.5,-168.79 358,-178.79 361.5,-168.79 354.5,-168.79"/>
</g>
<!-- AppRoutingModule -->
<g id="node5" class="node">
<title>AppRoutingModule</title>
<polygon fill="#8dd3c7" stroke="black" points="651.27,-84.8 648.27,-88.8 627.27,-88.8 624.27,-84.8 522.73,-84.8 522.73,-48.8 651.27,-48.8 651.27,-84.8"/>
<text text-anchor="middle" x="587" y="-62.6" font-family="Times,serif" font-size="14.00">AppRoutingModule</text>
</g>
<!-- AppRoutingModule&#45;&gt;AppModule -->
<g id="edge4" class="edge">
<title>AppRoutingModule&#45;&gt;AppModule</title>
<path fill="none" stroke="black" d="M587,-85.08C587,-106.12 587,-137.8 587,-137.8 587,-137.8 409.74,-137.8 409.74,-137.8"/>
<polygon fill="black" stroke="black" points="409.74,-134.3 399.74,-137.8 409.74,-141.3 409.74,-134.3"/>
</g>
</g>
</svg>
